# xmcd
#
# Track frame offsets: 
#        180
#        14243
#        44281
#        66643
#        85512
#        105482
#        127517
#        145594
#        165811
#        184945
#        204163
#        226299
#        246894
#        277605
#
# Disc length: 4233 seconds
#
# Revision: 0
# Processed by: cddbd v1.4PL0 Copyright (c) Steve Scherf et al.
# Submitted via: ExactAudioCopy v0.90b4
#
DISCID=aa10870e
DTITLE=Gary Moore - Romantic Ballads
DYEAR=1998
DGENRE=Blues
TTITLE0=I Loved Another Woman
TTITLE1=Story Of The Blues
TTITLE2=Midnight Blues
TTITLE3=Still Got The Blues
TTITLE4=Oh, Pretty Woman
TTITLE5=I Have Found My Love With You
TTITLE6=One Day
TTITLE7=Cold Day In Hell
TTITLE8=Empty Rooms
TTITLE9=Merry Go Round
TTITLE10=Separate Ways
TTITLE11=King Of The Blues
TTITLE12=Parisienne Walkways
TTITLE13=The Sky Is Crying
EXTD=
EXTT0=
EXTT1=
EXTT2=
EXTT3=
EXTT4=
EXTT5=
EXTT6=
EXTT7=
EXTT8=
EXTT9=
EXTT10=
EXTT11=
EXTT12=
EXTT13=
PLAYORDER=
